<svg width="14" height="8" viewBox="0 0 14 8" fill="none" xmlns="http://www.w3.org/2000/svg">
<path d="M6.80021 0.311953C6.53477 0.320743 6.28181 0.426743 6.0894 0.60981L0.673821 5.80875C0.466454 6.00804 0.346747 6.28155 0.341035 6.5691C0.335323 6.85665 0.444074 7.13468 0.643364 7.34205C0.842653 7.54941 1.11616 7.66912 1.40371 7.67483C1.69126 7.68055 1.9693 7.5718 2.17667 7.37251L6.84082 2.89789L11.505 7.37251C11.7123 7.5718 11.9904 7.68055 12.2779 7.67483C12.5655 7.66912 12.839 7.54941 13.0383 7.34205C13.2376 7.13468 13.3463 6.85665 13.3406 6.5691C13.3349 6.28155 13.2152 6.00804 13.0078 5.80875L7.59224 0.60981C7.48697 0.509553 7.36259 0.431521 7.22651 0.380348C7.09044 0.329176 6.94546 0.305911 6.80021 0.311953V0.311953Z" fill="#666666"/>
</svg>
