<svg width="21" height="21" viewBox="0 0 21 21" fill="none" xmlns="http://www.w3.org/2000/svg">
<path d="M19.079 9.21289H2.70531C1.71271 9.21289 0.908203 9.63146 0.908203 10.1479C0.908203 10.6643 1.71271 11.0829 2.70531 11.0829H19.079C20.0716 11.0829 20.8761 10.6643 20.8761 10.1479C20.8761 9.63146 20.0716 9.21289 19.079 9.21289Z" fill="#363636"/>
<path d="M9.95703 1.96107L9.95703 18.3347C9.95703 19.3273 10.3756 20.1318 10.892 20.1318C11.4085 20.1318 11.827 19.3273 11.827 18.3347L11.827 1.96107C11.827 0.968466 11.4085 0.163961 10.892 0.163961C10.3756 0.163961 9.95703 0.968466 9.95703 1.96107Z" fill="#363636"/>
</svg>
