<svg width="26" height="21" viewBox="0 0 26 21" fill="none" xmlns="http://www.w3.org/2000/svg">
<path d="M19.25 20.3828C16.4766 20.3828 14.1328 18.2344 14.1328 15.2656C14.1328 12.0625 16.4766 10.1484 19.25 10.1484C20.3828 10.1484 21.4375 10.5781 22.2188 11.2031C22.375 10.7344 22.4531 10.2266 22.4531 9.52344C22.4531 6.39844 19.6406 3.03906 16.3594 1.67188L17.1016 0.226562C22.7656 2.88281 25.3438 7.375 25.3438 12.5703C25.3438 13.8594 25.1094 16.0859 23.9766 17.8438C23 19.3672 21.5938 20.3828 19.25 20.3828ZM5.65625 20.3828C2.84375 20.3828 0.539062 18.2344 0.539062 15.2656C0.539062 12.0625 2.84375 10.1484 5.65625 10.1484C6.78906 10.1484 7.80469 10.5781 8.625 11.2031C8.78125 10.7344 8.85938 10.2266 8.85938 9.52344C8.85938 6.39844 6.04688 3.03906 2.76562 1.67188L3.50781 0.226562C9.17188 2.88281 11.75 7.375 11.75 12.5703C11.75 13.8594 11.5156 16.0859 10.3828 17.8438C9.40625 19.3672 7.96094 20.3828 5.65625 20.3828Z" fill="#9A9A9A"/>
</svg>
