<svg width="26" height="21" viewBox="0 0 26 21" fill="none" xmlns="http://www.w3.org/2000/svg">
<path d="M6.75 20.3828C9.52344 20.3828 11.8672 18.2344 11.8672 15.2656C11.8672 12.0625 9.52344 10.1484 6.75 10.1484C5.61719 10.1484 4.5625 10.5781 3.78125 11.2031C3.625 10.7344 3.54688 10.2266 3.54688 9.52344C3.54688 6.39844 6.35938 3.03906 9.64062 1.67188L8.89844 0.226562C3.23438 2.88281 0.65625 7.375 0.65625 12.5703C0.65625 13.8594 0.890625 16.0859 2.02344 17.8438C3 19.3672 4.40625 20.3828 6.75 20.3828ZM20.3438 20.3828C23.1562 20.3828 25.4609 18.2344 25.4609 15.2656C25.4609 12.0625 23.1562 10.1484 20.3438 10.1484C19.2109 10.1484 18.1953 10.5781 17.375 11.2031C17.2188 10.7344 17.1406 10.2266 17.1406 9.52344C17.1406 6.39844 19.9531 3.03906 23.2344 1.67188L22.4922 0.226562C16.8281 2.88281 14.25 7.375 14.25 12.5703C14.25 13.8594 14.4844 16.0859 15.6172 17.8438C16.5938 19.3672 18.0391 20.3828 20.3438 20.3828Z" fill="#9A9A9A"/>
</svg>
