<svg width="12" height="13" viewBox="0 0 12 13" fill="none" xmlns="http://www.w3.org/2000/svg">
<path d="M3.90293 7.2619L2.85871 6.76318L1.97709 8.94026C1.97435 8.94712 1.97169 8.95408 1.9694 8.96104C1.85743 9.29697 1.88233 9.60222 2.03963 9.82031C2.17596 10.0096 2.39515 10.1138 2.65682 10.1138H2.65691C2.78079 10.1138 2.91392 10.0904 3.05254 10.0442C3.05959 10.0419 3.06655 10.0393 3.07332 10.0366L5.25039 9.15496L4.75177 8.11065C4.61837 7.83149 4.18209 7.39521 3.90293 7.2619Z" fill="white"/>
<path d="M11.9704 0.540527L5.11523 7.39568C5.22904 7.53585 5.3238 7.67777 5.38606 7.80796L7.12613 11.4516C7.35988 11.9411 7.66806 12.0141 7.83085 12.0141H7.83094C7.97643 12.0141 8.3358 11.9509 8.53127 11.3645L11.9307 1.16614C12.0069 0.937432 12.0195 0.723003 11.9704 0.540527Z" fill="white"/>
<path d="M4.61837 6.89827L11.4739 0.0427569C11.402 0.023255 11.3249 0.0131836 11.2437 0.0131836C11.1196 0.0131836 10.9865 0.0366225 10.8479 0.0828594L0.649592 3.48223C0.110039 3.66215 0.0117053 3.97619 0.00108456 4.14731C-0.0095362 4.31853 0.0493358 4.64228 0.56252 4.88729L4.20617 6.62744C4.33628 6.6897 4.47819 6.78446 4.61837 6.89827Z" fill="white"/>
</svg>
