<svg width="61" height="62" viewBox="0 0 61 62" fill="none" xmlns="http://www.w3.org/2000/svg">
<circle cx="30.5" cy="31.1025" r="29" stroke="#86BE3F" stroke-width="3"/>
<path d="M44.7964 33.2222C44.4887 33.2222 44.2388 32.9786 44.2388 32.678C44.2388 32.3773 44.4884 32.1338 44.7964 32.1338H48C47.8611 27.8327 46.0872 23.9284 43.2635 20.9936L41.0034 23.1991C40.8943 23.3055 40.7519 23.3584 40.609 23.3584C40.4661 23.3584 40.3237 23.3055 40.2146 23.1991C39.9968 22.9869 39.9968 22.6419 40.2146 22.4297L42.4747 20.2242C39.4673 17.4688 35.4659 15.7381 31.0577 15.6025V18.7287C31.0577 19.0293 30.8081 19.2729 30.5 19.2729C30.1923 19.2729 29.9423 19.0293 29.9423 18.7287V15.6025C25.5344 15.7381 21.533 17.4687 18.5253 20.2242L20.7854 22.4297C21.0032 22.6419 21.0032 22.9869 20.7854 23.1991C20.6763 23.3055 20.5339 23.3584 20.391 23.3584C20.2481 23.3584 20.1057 23.3055 19.9966 23.1991L17.7365 20.9936C14.9125 23.9283 13.1389 27.8326 13 32.1338H16.2036C16.5113 32.1338 16.7612 32.3773 16.7612 32.678C16.7612 32.9786 16.5116 33.2222 16.2036 33.2222H13.0028C13.1759 38.5637 15.8791 43.4967 20.349 46.6025C22.5722 43.2688 26.4081 41.2211 30.5002 41.2211C34.5923 41.2211 38.428 43.2692 40.6513 46.6021C45.1208 43.4967 47.8241 38.5633 47.9975 33.2218H44.7963L44.7964 33.2222ZM38.1099 26.0484L35.8266 29.2623C34.6901 30.8623 33.7557 32.5944 32.8519 34.2687C32.2636 35.3582 31.1314 36.0234 29.8787 36.0234C29.8433 36.0234 29.8084 36.0231 29.7727 36.0219C27.9894 35.9687 26.5283 34.5039 26.5162 32.7575C26.5075 31.5251 27.1939 30.4011 28.3081 29.8251L28.314 29.8217L37.3791 25.2633C37.6059 25.1392 37.8896 25.1844 38.0647 25.372C38.2389 25.5601 38.2578 25.8404 38.1098 26.0483L38.1099 26.0484Z" fill="#86BE3F"/>
</svg>
