<svg width="15" height="15" viewBox="0 0 15 15" fill="none" xmlns="http://www.w3.org/2000/svg">
<g clip-path="url(#clip0_150_790)">
<path d="M15 11.8466C15 12.0383 14.9645 12.2887 14.8935 12.5977C14.8224 12.9066 14.7479 13.1499 14.6698 13.3274C14.5206 13.6825 14.0874 14.059 13.37 14.4567C12.7024 14.8189 12.0419 15 11.3885 15C11.1967 15 11.0103 14.9876 10.8292 14.9627C10.6481 14.9379 10.4439 14.8935 10.2166 14.8296C9.98934 14.7656 9.82068 14.7141 9.71058 14.6751C9.6005 14.636 9.4034 14.5632 9.11931 14.4567C8.83523 14.3501 8.66123 14.2862 8.5973 14.2649C7.90128 14.0163 7.27982 13.7216 6.73295 13.3807C5.82387 12.8196 4.88459 12.0543 3.91513 11.0849C2.94567 10.1154 2.18039 9.17613 1.61931 8.26705C1.27841 7.72017 0.983672 7.09872 0.735088 6.40269C0.713774 6.33876 0.649863 6.16475 0.543325 5.88067C0.436787 5.59658 0.363984 5.39949 0.324917 5.2894C0.285864 5.17932 0.234375 5.01064 0.170449 4.78336C0.106538 4.55609 0.0621387 4.3519 0.0372949 4.17079C0.0124072 3.98971 0 3.80328 0 3.6115C0 2.95809 0.181113 2.29758 0.543311 1.62998C0.941045 0.912642 1.31748 0.479399 1.67259 0.330249C1.85014 0.252129 2.09339 0.177554 2.40234 0.106538C2.71128 0.0355078 2.96165 0 3.15341 0C3.25285 0 3.32742 0.0106494 3.37712 0.0319629C3.50498 0.0745752 3.69318 0.344458 3.94176 0.841626C4.01988 0.976567 4.12642 1.16833 4.26136 1.4169C4.3963 1.66548 4.5206 1.89098 4.63424 2.09339C4.74787 2.29581 4.85795 2.4858 4.96449 2.66336C4.9858 2.69177 5.04794 2.78055 5.15092 2.92969C5.2539 3.07884 5.33026 3.2049 5.37998 3.30788C5.42969 3.41086 5.45454 3.51208 5.45454 3.6115C5.45454 3.75354 5.35334 3.93111 5.15092 4.14417C4.94851 4.35725 4.72834 4.55256 4.49042 4.73011C4.25249 4.90767 4.03232 5.09588 3.82991 5.29475C3.62748 5.4936 3.52627 5.65696 3.52627 5.7848C3.52627 5.84873 3.54403 5.92862 3.57955 6.02451C3.61506 6.12038 3.64523 6.19318 3.67009 6.2429C3.69495 6.29262 3.74467 6.37784 3.81924 6.49857C3.89382 6.61932 3.93467 6.68679 3.94176 6.701C4.48153 7.67401 5.09943 8.50852 5.79545 9.20455C6.49148 9.90057 7.32599 10.5185 8.29901 11.0582C8.31322 11.0653 8.38068 11.1062 8.50143 11.1808C8.62216 11.2553 8.70738 11.305 8.7571 11.3299C8.80682 11.3548 8.87962 11.3849 8.97551 11.4204C9.07138 11.456 9.15129 11.4737 9.2152 11.4737C9.34304 11.4737 9.5064 11.3725 9.70525 11.1701C9.90412 10.9677 10.0923 10.7475 10.2699 10.5096C10.4474 10.2717 10.6427 10.0515 10.8558 9.84908C11.0689 9.64666 11.2465 9.54545 11.3885 9.54545C11.4879 9.54545 11.5891 9.57031 11.6921 9.62002C11.7951 9.66974 11.9212 9.74609 12.0703 9.84908C12.2195 9.95206 12.3082 10.0142 12.3367 10.0355C12.5142 10.1421 12.7042 10.2521 12.9066 10.3658C13.109 10.4794 13.3345 10.6037 13.5831 10.7386C13.8317 10.8736 14.0234 10.9801 14.1584 11.0582C14.6555 11.3068 14.9254 11.495 14.968 11.6229C14.9894 11.6726 15 11.7472 15 11.8466Z" fill="#86BE3F"/>
</g>
<defs>
<clipPath id="clip0_150_790">
<rect width="15" height="15" fill="white"/>
</clipPath>
</defs>
</svg>
