<svg width="19" height="20" viewBox="0 0 19 20" fill="none" xmlns="http://www.w3.org/2000/svg">
<path d="M18.5018 14.6799L15.8447 12.0284C14.8957 11.0814 13.2825 11.4603 12.9029 12.6913C12.6182 13.5436 11.6693 14.0171 10.8152 13.8276C8.91728 13.3542 6.35509 10.892 5.88061 8.90342C5.59592 8.05111 6.1653 7.10415 7.01936 6.82009C8.25301 6.44131 8.63259 4.83147 7.68363 3.8845L5.02655 1.233C4.26738 0.570121 3.12863 0.570121 2.46436 1.233L0.661336 3.03223C-1.14169 4.92616 0.851128 9.94508 5.31124 14.3958C9.77134 18.8466 14.8008 20.9299 16.6987 19.0359L18.5018 17.2367C19.1661 16.4791 19.1661 15.3428 18.5018 14.6799Z" fill="white"/>
</svg>
