<svg width="79" height="79" viewBox="0 0 79 79" fill="none" xmlns="http://www.w3.org/2000/svg">
<path d="M64.7535 29.6445C63.7761 29.6445 62.8111 29.7528 61.8574 29.9584C61.9421 29.3311 61.9901 28.7157 61.9901 28.0884C61.9901 20.7158 55.9936 14.7194 48.621 14.7194C46.5336 14.7194 44.4703 15.214 42.6122 16.1553C39.3542 12.2339 34.6366 10.0137 29.5085 10.0137C20.0853 10.0137 12.4105 17.6752 12.4105 27.1C12.4105 28.4511 12.5675 29.8029 12.8933 31.1061C8.42862 33.3742 5.60547 37.9473 5.60547 43.0149C5.60547 50.3992 11.6019 56.3956 18.9745 56.3956H19.7949L18.0451 60.0392C17.8763 60.4011 17.9006 60.8235 18.1055 61.1736C18.3229 61.5112 18.6967 61.7168 19.0947 61.7168H23.1732L19.5775 73.602C19.4205 74.1328 19.6622 74.7121 20.1568 74.9775C20.3256 75.0741 20.5188 75.1102 20.7001 75.1102C21.0502 75.1102 21.3878 74.9532 21.617 74.676L36.2649 56.3959H43.3714L41.5014 60.2811C41.3326 60.643 41.3569 61.0654 41.5618 61.4155C41.7792 61.7531 42.153 61.9587 42.551 61.9587H47.7632L43.3471 76.5225C43.1901 77.0657 43.4318 77.6325 43.9264 77.8979C44.0952 77.9945 44.2883 78.0306 44.4696 78.0306C44.8197 78.0306 45.1574 77.8736 45.3866 77.5964L62.3753 56.3971H64.7643C72.1487 56.3971 78.1451 50.3882 78.1451 43.0163C78.1339 35.6419 72.125 29.6453 64.7524 29.6453L64.7535 29.6445ZM23.5605 68.4849L25.8654 60.8831C25.9738 60.533 25.9016 60.1468 25.6842 59.8453C25.4667 59.5438 25.1173 59.375 24.7429 59.375H20.9542L27.4458 45.8609H32.5496L28.0009 54.8499C27.8196 55.2119 27.8321 55.646 28.0488 55.9961C28.2663 56.3462 28.64 56.5512 29.0505 56.5512H33.129L23.5605 68.4849ZM47.331 71.4053L50.4438 61.1248C50.5522 60.7747 50.48 60.3884 50.2626 60.0869C50.0451 59.7854 49.6957 59.6166 49.3213 59.6166H44.3982L52.4224 42.9292H59.0704L53.4359 54.0662C53.2546 54.4281 53.267 54.8623 53.4838 55.2124C53.7012 55.5625 54.075 55.7674 54.4855 55.7674H59.8671L47.331 71.4053ZM64.7535 54.055H63.3294C63.1245 53.6688 62.7383 53.4277 62.3041 53.4277H56.3917L62.0263 42.2908C62.2076 41.9289 62.1951 41.4947 61.9783 41.1446C61.7609 40.7945 61.3872 40.5896 60.9766 40.5896H51.6861C51.2394 40.5896 50.8295 40.8431 50.6364 41.253L44.4829 54.0427H31.0292L35.4939 45.2107C35.6752 44.8488 35.6627 44.4146 35.4459 44.0645C35.2285 43.7144 34.8547 43.5094 34.4442 43.5094H26.698C26.2513 43.5094 25.8414 43.763 25.6483 44.1728L20.9065 54.0427H18.9642C12.883 54.0427 7.9362 49.0835 7.9362 43.0023C7.9362 38.5376 10.603 34.5322 14.7293 32.8185C15.2844 32.5893 15.574 31.9738 15.3928 31.3944C14.9586 30.0071 14.7412 28.5469 14.7412 27.0868C14.7412 18.9543 21.353 12.3423 29.4981 12.3423C34.2157 12.3423 38.5358 14.5263 41.3589 18.3511C41.7209 18.8339 42.3843 18.9666 42.9032 18.6526C44.6288 17.603 46.6072 17.0479 48.6106 17.0479C54.6917 17.0479 59.6385 21.9947 59.6385 28.0759C59.6385 29.1741 59.4815 30.2599 59.1557 31.3214C59.023 31.7556 59.1557 32.2141 59.4815 32.5163C59.8191 32.8178 60.2901 32.9025 60.7 32.7455C61.9789 32.2384 63.3426 31.973 64.7298 31.973C70.8228 31.973 75.7702 36.9198 75.7702 43.001C75.7939 49.1077 70.8345 54.0552 64.7534 54.0552L64.7535 54.055Z" fill="#86BE3F"/>
<path d="M68.9176 22.6828H70.0881V23.8534C70.0881 24.505 70.607 25.0239 71.2586 25.0239C71.9102 25.0239 72.4291 24.505 72.4291 23.8534V22.6828H73.5996C74.2512 22.6828 74.7701 22.1639 74.7701 21.5123C74.7701 20.8607 74.2512 20.3418 73.5996 20.3418H72.4291V19.1713C72.4291 18.5197 71.9102 18.0008 71.2586 18.0008C70.607 18.0008 70.0881 18.5197 70.0881 19.1713V20.3418H68.9176C68.266 20.3418 67.7471 20.8607 67.7471 21.5123C67.7471 22.1639 68.266 22.6828 68.9176 22.6828Z" fill="#86BE3F"/>
<path d="M42.5416 5.50072H43.7121V6.67124C43.7121 7.32284 44.231 7.84174 44.8826 7.84174C45.5342 7.84174 46.0531 7.32284 46.0531 6.67124L46.0525 5.50072H47.223C47.8746 5.50072 48.3935 4.98181 48.3935 4.33021C48.3935 3.67861 47.8746 3.1597 47.223 3.1597L46.0407 3.16036V1.98985C46.0407 1.35007 45.5218 0.819336 44.8702 0.819336C44.2185 0.819336 43.6996 1.33825 43.6996 1.98985V3.16036H42.5416C41.89 3.16036 41.3711 3.67927 41.3711 4.33087C41.3711 4.98182 41.89 5.50073 42.5416 5.50073V5.50072Z" fill="#86BE3F"/>
<path d="M6.76596 28.5346C7.41756 28.5346 7.93647 28.0157 7.93647 27.3641C7.93647 26.7125 7.41756 26.1936 6.76596 26.1936H5.59545V25.0231C5.59545 24.3715 5.07654 23.8526 4.42494 23.8526C3.77334 23.8526 3.25443 24.3715 3.25443 25.0231V26.1936H2.08457C1.44479 26.1936 0.914062 26.725 0.914062 27.3641C0.914062 28.0157 1.43297 28.5346 2.08457 28.5346H3.25508V29.7051C3.25508 30.3567 3.77399 30.8756 4.42559 30.8756C5.0772 30.8756 5.59611 30.3567 5.59611 29.7051V28.5346H6.76596Z" fill="#86BE3F"/>
</svg>
