<svg width="61" height="62" viewBox="0 0 61 62" fill="none" xmlns="http://www.w3.org/2000/svg">
<circle cx="30.5" cy="31.1025" r="29" stroke="#86BE3F" stroke-width="3"/>
<path d="M38.4796 14.6025C35.4349 14.6025 32.9592 17.0694 32.9592 20.1026C32.9592 22.4693 34.4983 24.5693 36.7065 25.3026V28.9027L20.7476 28.9024V35.9358C18.506 36.6691 17.0003 38.7691 17.0003 41.1358C16.9672 44.1693 19.4428 46.6025 22.4875 46.6025C25.5322 46.6025 28.0079 44.1357 28.0079 41.1025C28.0079 38.7358 26.4689 36.6358 24.2606 35.9025V32.3359H40.2527V25.2692C42.4943 24.5359 44 22.4359 44 20.0691C44 17.0359 41.5241 14.6027 38.4797 14.6027L38.4796 14.6025Z" fill="#86BE3F"/>
</svg>
