<svg width="43" height="32" viewBox="0 0 43 32" fill="none" xmlns="http://www.w3.org/2000/svg">
<path fill-rule="evenodd" clip-rule="evenodd" d="M23.8842 8.61605C24.1806 8.84126 24.4758 9.05159 24.7707 9.2467C22.8734 10.2977 21.4419 12.0473 20.4776 14.4955C19.7155 16.4027 19.3337 18.5053 19.3337 20.8031C19.3337 21.4486 19.3968 22.1844 19.5204 23.0109C17.7939 20.3225 15.593 17.9048 12.9169 15.7572C12.6529 15.577 12.3727 15.4945 12.0774 15.5093C11.7822 15.5242 11.5324 15.6669 11.3307 15.9374C11.144 16.1626 11.0582 16.4254 11.0735 16.726C11.1043 16.9962 11.2448 17.2218 11.4935 17.402C16.0044 21.0662 19.0842 25.5193 20.7333 30.7609C7.32581 27.9072 0.621094 20.0972 0.621094 7.33191C0.621094 6.31073 0.847047 5.09405 1.29818 3.68262C1.65577 2.48115 2.04493 1.55026 2.4649 0.88916C4.84486 2.21107 8.43046 3.45001 13.2216 4.6061C18.0594 5.71766 21.6141 7.05431 23.8847 8.61586L23.8842 8.61605ZM40.4282 4.78647C40.459 4.80171 40.4748 4.82401 40.4748 4.85411C40.7854 5.99535 41.1511 7.36178 41.5714 8.95425C42.2712 11.7173 42.6211 13.6322 42.6211 14.6984C42.6211 19.8045 41.2912 23.8745 38.6314 26.9081C35.6447 30.3022 31.2497 31.9618 25.4476 31.8867C25.5096 31.7663 25.5404 31.6838 25.5404 31.6389C26.5666 26.8632 28.8769 22.6505 32.4705 19.0011C32.7038 18.7759 32.8204 18.5351 32.8204 18.2801C32.8204 17.9795 32.6965 17.732 32.4474 17.5369C32.2296 17.3117 31.957 17.1991 31.6306 17.1991C31.3654 17.1991 31.1248 17.3343 30.907 17.6045C27.5627 20.9239 25.237 24.6858 23.9306 28.8904C23.7127 28.4701 23.4868 28.0193 23.2535 27.5388C23.1915 27.2839 23.1061 27.0059 22.9971 26.7053V26.7952C22.0321 24.2722 21.5495 22.2748 21.5495 20.8032C21.5495 18.8054 21.8766 16.9436 22.5302 15.2166C23.2924 13.2793 24.4506 11.8898 26.0065 11.0492H26.0303C26.0769 11.0339 26.1316 11.0191 26.1935 11.0042V10.9366C26.3329 10.8916 26.4345 10.8388 26.4969 10.779C31.4435 8.91683 35.379 7.25006 38.303 5.77812C38.6922 5.62799 39.0186 5.47748 39.2831 5.32771C39.7504 5.11663 40.1322 4.93676 40.4274 4.78626L40.4282 4.78647Z" fill="#86BE3F"/>
</svg>
