<svg width="23" height="34" viewBox="0 0 23 34" fill="none" xmlns="http://www.w3.org/2000/svg">
<path fill-rule="evenodd" clip-rule="evenodd" d="M15.7475 2.25753V3.63295H18.4986C20.7779 3.63295 22.6255 5.48059 22.6255 7.75982V29.7693C22.6255 32.0485 20.7779 33.8962 18.4986 33.8962H4.74309C2.46386 33.8962 0.616211 32.0485 0.616211 29.7693V7.75982C0.616211 5.48059 2.46386 3.63295 4.74309 3.63295H7.49427V2.25753C7.49427 1.49781 8.10997 0.881836 8.86969 0.881836H14.372C15.1318 0.881836 15.7475 1.4978 15.7475 2.25753ZM17.8579 14.7088C17.8788 14.3188 17.7331 13.9381 17.4567 13.6617C17.1531 13.3581 16.7493 13.2407 16.3288 13.2658C16.1804 13.275 15.8365 13.2982 15.3667 13.3423C14.7423 13.4006 13.8878 13.4961 12.9758 13.6451C12.0698 13.7932 11.074 13.9991 10.1786 14.2861C9.33091 14.5576 8.3762 14.9609 7.72969 15.6071C5.9169 17.4202 5.63346 20.1835 6.87983 22.2934L6.7573 22.416C6.22003 22.9533 6.22003 23.8241 6.7573 24.3614C7.29429 24.8986 8.16541 24.8986 8.7024 24.3614L8.82521 24.2388C10.9351 25.4849 13.6985 25.2017 15.5113 23.3887C16.1575 22.7425 16.5608 21.7878 16.8325 20.9398C17.1193 20.0447 17.3254 19.0486 17.4733 18.1426C17.6222 17.2306 17.7178 16.3761 17.7764 15.752C17.8088 15.4048 17.8385 15.0568 17.8579 14.7088Z" fill="#86BE3F"/>
</svg>
