<svg width="63" height="62" viewBox="0 0 63 62" fill="none" xmlns="http://www.w3.org/2000/svg">
<circle cx="31.5" cy="31" r="31" fill="#F5F5F5"/>
<path d="M31.102 35.1225L32.7296 33.4948C33.2485 32.9759 33.2485 32.1347 32.7296 31.6158C32.2109 31.0968 31.3695 31.0968 30.8506 31.6158L29.223 33.2437C28.9863 32.357 29.2156 31.3717 29.9111 30.6762C30.0652 30.5221 30.4718 30.2877 31.208 30.0518C31.8985 29.8306 32.7183 29.657 33.5276 29.5247C34.0605 29.4376 34.575 29.3708 35.0252 29.3203C34.9745 29.7706 34.9077 30.2851 34.8206 30.8177C34.6883 31.6271 34.515 32.4469 34.2938 33.1374C34.0579 33.8739 33.8232 34.2802 33.6691 34.4344C32.9737 35.1298 31.9887 35.3594 31.102 35.1225L31.102 35.1225Z" fill="#86BE3F"/>
<path fill-rule="evenodd" clip-rule="evenodd" d="M35.6215 15.3757V16.7511H38.3727C40.6519 16.7511 42.4995 18.5988 42.4995 20.878V42.8874C42.4995 45.1667 40.6519 47.0143 38.3727 47.0143H24.6171C22.3379 47.0143 20.4902 45.1667 20.4902 42.8874V20.878C20.4902 18.5988 22.3379 16.7511 24.6171 16.7511H27.3683V15.3757C27.3683 14.616 27.984 14 28.7437 14H34.2461C35.0058 14 35.6218 14.616 35.6218 15.3757H35.6215ZM37.7319 27.8269C37.7528 27.437 37.6072 27.0563 37.3308 26.7799C37.0271 26.4762 36.6233 26.3589 36.2028 26.3839C36.0544 26.3932 35.7105 26.4163 35.2407 26.4605C34.6163 26.5187 33.7618 26.6143 32.8498 26.7633C31.9438 26.9114 30.948 27.1173 30.0526 27.4043C29.2049 27.6758 28.2502 28.0791 27.6037 28.7253C25.7909 30.5383 25.5075 33.3017 26.7539 35.4116L26.6313 35.5341C26.094 36.0714 26.094 36.9423 26.6313 37.4795C27.1683 38.0168 28.0394 38.0168 28.5764 37.4795L28.6992 37.357C30.8091 38.6031 33.5725 38.3199 35.3853 36.5069C36.0315 35.8607 36.4348 34.9059 36.7066 34.0579C36.9933 33.1628 37.1994 32.1667 37.3473 31.2608C37.4963 30.3488 37.5918 29.4943 37.6504 28.8701C37.6828 28.5229 37.7125 28.1749 37.7318 27.8269L37.7319 27.8269Z" fill="#86BE3F"/>
</svg>
