<svg width="61" height="62" viewBox="0 0 61 62" fill="none" xmlns="http://www.w3.org/2000/svg">
<circle cx="30.5" cy="30.5979" r="29" stroke="#86BE3F" stroke-width="3"/>
<path d="M43.759 18.241H16.8773C16.283 18.241 15.7132 18.4769 15.2928 18.8974C14.8727 19.3175 14.6367 19.8873 14.6367 20.4816V22.7222C14.6367 23.3166 14.8727 23.8868 15.2928 24.3068C15.7132 24.7269 16.2831 24.9632 16.8773 24.9632H43.759C44.3534 24.9632 44.9232 24.7269 45.3433 24.3068C45.7637 23.8867 45.9997 23.3165 45.9997 22.7222V20.4816C45.9997 19.8873 45.7637 19.3174 45.3433 18.8974C44.9231 18.4769 44.3533 18.241 43.759 18.241ZM40.3998 22.7223C39.9472 22.7223 39.5392 22.4498 39.366 22.0317C39.1929 21.614 39.2888 21.1328 39.6085 20.8127C39.9286 20.493 40.4098 20.3971 40.8279 20.5702C41.2456 20.7434 41.5184 21.1514 41.5184 21.6036C41.5184 22.2214 41.0176 22.7222 40.3998 22.7222L40.3998 22.7223Z" fill="#86BE3F"/>
<path d="M43.759 27.2045H16.8773C16.283 27.2045 15.7132 27.4404 15.2928 27.8609C14.8727 28.281 14.6367 28.8508 14.6367 29.4451V31.6861C14.6367 32.2801 14.8727 32.8503 15.2928 33.2703C15.7132 33.6905 16.2831 33.9267 16.8773 33.9267H43.759C44.354 33.9267 44.9242 33.6901 45.3447 33.2693C45.7652 32.8481 46.0007 32.2773 45.9997 31.6822V29.445C45.9997 28.8507 45.7638 28.2809 45.3433 27.8608C44.9232 27.4403 44.3534 27.2044 43.7591 27.2044L43.759 27.2045ZM40.3998 31.6823C39.9472 31.6823 39.5392 31.4099 39.366 30.9918C39.1929 30.5741 39.2888 30.0929 39.6085 29.7728C39.9286 29.453 40.4098 29.3572 40.8279 29.5303C41.2456 29.7035 41.5184 30.1115 41.5184 30.5637C41.5184 31.1815 41.0176 31.6823 40.3998 31.6823L40.3998 31.6823Z" fill="#86BE3F"/>
<path d="M43.759 36.1636H16.8773C16.283 36.1636 15.7132 36.3995 15.2928 36.82C14.8727 37.2401 14.6367 37.8099 14.6367 38.4042V40.6452C14.6367 41.2392 14.8727 41.8094 15.2928 42.2294C15.7132 42.6496 16.2831 42.8858 16.8773 42.8858H43.759C44.3534 42.8858 44.9232 42.6496 45.3433 42.2294C45.7637 41.8093 45.9997 41.2391 45.9997 40.6452V38.4042C45.9997 37.8099 45.7637 37.24 45.3433 36.82C44.9231 36.3995 44.3533 36.1636 43.759 36.1636ZM40.3998 40.6453C39.9472 40.6453 39.5392 40.3724 39.366 39.9547C39.1929 39.5367 39.2888 39.0554 39.6085 38.7354C39.9286 38.4156 40.4098 38.3197 40.8279 38.4929C41.2456 38.666 41.5184 39.0741 41.5184 39.5263C41.5184 40.1444 41.0176 40.6452 40.3998 40.6452L40.3998 40.6453Z" fill="#86BE3F"/>
</svg>
