<svg width="54" height="47" viewBox="0 0 54 47" fill="none" xmlns="http://www.w3.org/2000/svg">
<path d="M27.7105 34.7598C33.1972 34.7598 37.6632 30.3788 37.6632 25.0047C37.6632 19.6227 33.197 15.2495 27.7105 15.2495C22.2315 15.2495 17.7656 19.623 17.7656 25.0047C17.7656 30.3795 22.2318 34.7598 27.7105 34.7598Z" fill="#CBB702"/>
<path d="M26.0462 11.8917L27.7111 8.62499L29.3765 11.8917C29.5071 12.1551 29.7832 12.3056 30.0673 12.3056C30.1824 12.3056 30.2974 12.2829 30.4125 12.2229C30.7885 12.0348 30.9419 11.5829 30.7577 11.2141L28.4096 6.59991C28.2638 6.34398 28.0029 6.18604 27.7112 6.18604C27.4195 6.18604 27.1586 6.34398 27.0284 6.59991L24.6802 11.2141C24.4884 11.5829 24.6419 12.0344 25.0254 12.2229C25.3938 12.4114 25.8541 12.2605 26.0463 11.8917L26.0462 11.8917Z" fill="#CBB702"/>
<path d="M20.4047 14.0979C20.5353 13.7063 20.3204 13.2776 19.9212 13.142L14.9332 11.5084C14.6571 11.4183 14.3499 11.4857 14.1505 11.6891C13.9511 11.8925 13.8744 12.1861 13.9663 12.4569L15.6316 17.3497C15.7391 17.666 16.0384 17.8616 16.3608 17.8616C16.4375 17.8616 16.5218 17.8467 16.6065 17.824C17.0057 17.6958 17.2282 17.2671 17.09 16.8755L15.9157 13.4128L19.4458 14.5647C19.8369 14.7073 20.2665 14.4969 20.4047 14.0979L20.4047 14.0979Z" fill="#CBB702"/>
<path d="M8.94829 25.6753L13.6522 27.9787C13.7597 28.0312 13.8824 28.0614 13.9974 28.0614C14.2815 28.0614 14.55 27.9109 14.6883 27.6475C14.8801 27.2787 14.7266 26.8272 14.343 26.6387L11.0128 25.0051L14.343 23.3716C14.719 23.1834 14.8724 22.7316 14.6883 22.3628C14.5041 21.994 14.0358 21.8435 13.6598 22.0241L8.9559 24.3275C8.6874 24.4556 8.52637 24.7194 8.52637 25.0051C8.52637 25.2912 8.68739 25.5546 8.9483 25.6753L8.94829 25.6753Z" fill="#CBB702"/>
<path d="M14.1433 38.313C14.2891 38.4561 14.4885 38.5313 14.6883 38.5313C14.7726 38.5313 14.8493 38.5164 14.934 38.4937L19.922 36.8601C20.3211 36.732 20.5437 36.3032 20.4054 35.9043C20.2748 35.5127 19.8377 35.2944 19.4385 35.43L15.9085 36.5819L17.0827 33.1192C17.2134 32.7276 16.9984 32.2989 16.5993 32.1707C16.1925 32.0351 15.763 32.2534 15.6324 32.6449L13.9671 37.5378C13.8672 37.8086 13.9359 38.1096 14.1433 38.313L14.1433 38.313Z" fill="#CBB702"/>
<path d="M27.0278 43.4086C27.1585 43.6645 27.4194 43.8228 27.7106 43.8228C28.0023 43.8228 28.2632 43.6649 28.3935 43.409L30.7416 38.7948C30.9334 38.426 30.78 37.9745 30.3964 37.786C30.0204 37.5978 29.5601 37.7484 29.368 38.1246L27.7106 41.3839L26.0453 38.1172C25.8535 37.7484 25.3928 37.5979 25.0168 37.7785C24.6409 37.9667 24.4874 38.4185 24.6716 38.7873L27.0278 43.4086Z" fill="#CBB702"/>
<path d="M35.0157 35.912C34.8851 36.3035 35.1001 36.7323 35.4992 36.8678L40.4872 38.5014C40.5639 38.5241 40.6482 38.539 40.7329 38.539C40.9323 38.539 41.132 38.4638 41.2779 38.3207C41.4852 38.1173 41.554 37.8238 41.462 37.5529L39.7967 32.6601C39.6661 32.2686 39.229 32.0503 38.8298 32.1858C38.4307 32.314 38.2081 32.7428 38.3464 33.1417L39.5206 36.6044L35.9906 35.4526C35.5835 35.3021 35.1536 35.5129 35.0157 35.9119V35.912Z" fill="#CBB702"/>
<path d="M40.7403 22.3632C40.5486 22.732 40.702 23.1836 41.0856 23.372L44.4086 25.0052L41.0784 26.6388C40.7024 26.8269 40.549 27.2788 40.7332 27.6476C40.8714 27.9109 41.1399 28.0614 41.424 28.0614C41.539 28.0614 41.6541 28.0387 41.7692 27.9787L46.4731 25.6754C46.7336 25.5547 46.895 25.2913 46.895 25.0052C46.895 24.7191 46.734 24.4558 46.4731 24.3354L41.7692 22.0321C41.3928 21.8365 40.9325 21.987 40.7404 22.3633L40.7403 22.3632Z" fill="#CBB702"/>
<path d="M41.2778 11.6964C41.0704 11.493 40.7712 11.4256 40.4951 11.5158L35.507 13.1493C35.1079 13.2775 34.8853 13.7062 35.0235 14.1052C35.1542 14.4967 35.5913 14.715 35.9905 14.5794L39.5205 13.4276L38.3463 16.8903C38.2156 17.2818 38.4306 17.7106 38.8297 17.8462C38.9141 17.8763 38.9908 17.8838 39.0755 17.8838C39.3979 17.8838 39.6971 17.6804 39.8046 17.3719L41.47 12.4791C41.5539 12.2008 41.4848 11.8998 41.2778 11.6964L41.2778 11.6964Z" fill="#CBB702"/>
</svg>
