<svg width="26" height="27" viewBox="0 0 26 27" fill="none" xmlns="http://www.w3.org/2000/svg">
<path d="M26 13.1973C26 6.0168 20.1805 0.197266 13 0.197266C5.81953 0.197266 0 6.0168 0 13.1973C0 20.3777 5.81953 26.1973 13 26.1973C13.0762 26.1973 13.1523 26.1973 13.2285 26.1922V16.0766H10.4355V12.8215H13.2285V10.4246C13.2285 7.64687 14.9246 6.13359 17.4027 6.13359C18.591 6.13359 19.6117 6.21992 19.9062 6.26055V9.16523H18.2C16.8543 9.16523 16.5902 9.80508 16.5902 10.7445V12.8164H19.8148L19.3934 16.0715H16.5902V25.6945C22.0238 24.1355 26 19.1336 26 13.1973Z" fill="white"/>
</svg>
