<svg width="61" height="62" viewBox="0 0 61 62" fill="none" xmlns="http://www.w3.org/2000/svg">
<circle cx="30.5" cy="31.2957" r="29" stroke="#86BE3F" stroke-width="3"/>
<path d="M30.5 17.5604C23.4841 17.5604 17.6937 22.8096 16.843 29.5951L18.3861 28.0517C18.6103 27.8278 18.9731 27.8278 19.1973 28.0517L20.0083 28.8629C20.2322 29.0868 20.2322 29.45 20.0083 29.6739L16.3994 33.2831C15.9513 33.7309 15.2249 33.7309 14.7772 33.2831L11.1679 29.6739C10.944 29.45 10.944 29.0868 11.1679 28.8629L11.9792 28.0517C12.2031 27.8278 12.5663 27.8278 12.7902 28.0517L14.5147 29.7765C15.2938 21.6341 22.1533 15.2664 30.4997 15.2664C34.5297 15.2664 38.3258 16.7593 41.2464 19.3919C41.302 19.4424 41.3683 19.5036 41.4445 19.5756C41.4487 19.5795 41.4529 19.5837 41.4571 19.5878C41.6807 19.8121 41.6803 20.1752 41.4561 20.3988L40.6432 21.2091C40.4245 21.4275 40.0716 21.433 39.8461 21.2213C39.7847 21.1641 39.7313 21.1145 39.6853 21.0734C37.1849 18.8303 33.9442 17.5606 30.4999 17.5606L30.5 17.5604ZM44.1569 33.0546L42.6135 34.598C42.3896 34.8219 42.0265 34.8219 41.8026 34.598L40.9916 33.7867C40.7674 33.5628 40.7674 33.1997 40.9916 32.9758L44.6005 29.3665C45.0486 28.9187 45.7747 28.9187 46.2227 29.3665L49.832 32.9758C50.0559 33.1997 50.0559 33.5628 49.832 33.7867L49.0207 34.598C48.7968 34.8219 48.4336 34.8219 48.2097 34.598L46.4849 32.8732C45.7058 41.0156 38.8466 47.3833 30.4999 47.3833C26.4693 47.3833 22.6721 45.89 19.7515 43.2558C19.7004 43.2098 19.6406 43.1545 19.572 43.0898C19.5679 43.086 19.5637 43.0818 19.5595 43.0776C19.3353 42.8537 19.3353 42.4906 19.5595 42.2667L20.3721 41.4538C20.5908 41.2354 20.943 41.2292 21.1692 41.4403C21.2901 41.5535 21.3921 41.6458 21.4748 41.7175C23.953 43.8731 27.129 45.0894 30.5004 45.0894C37.5165 45.0894 43.3067 39.8399 44.1573 33.0547L44.1569 33.0546ZM35.6617 29.0307C36.5852 29.0307 37.1301 30.0665 36.6071 30.8276L30.2983 40.0039C29.6601 40.9322 28.2061 40.4806 28.2061 39.3541V33.6188H25.3383C24.4428 33.6188 23.8927 32.638 24.3598 31.8737L30.6685 21.5503C31.2723 20.5618 32.7942 20.9899 32.7942 22.1483V29.0306L35.6617 29.0307Z" fill="#86BE3F"/>
</svg>
