<svg width="26" height="27" viewBox="0 0 26 27" fill="none" xmlns="http://www.w3.org/2000/svg">
<path d="M15.4069 13.1971C15.4069 14.5262 14.3294 15.6036 13.0003 15.6036C11.6712 15.6036 10.5938 14.5262 10.5938 13.1971C10.5938 11.868 11.6712 10.7905 13.0003 10.7905C14.3294 10.7905 15.4069 11.868 15.4069 13.1971Z" fill="white"/>
<path d="M18.7207 8.86888C18.6032 8.55023 18.4156 8.26181 18.1718 8.02506C17.935 7.7813 17.6468 7.5937 17.328 7.47611C17.0694 7.37568 16.6809 7.25613 15.9654 7.22357C15.1914 7.18827 14.9594 7.18066 12.9999 7.18066C11.0402 7.18066 10.8082 7.18807 10.0344 7.22337C9.31886 7.25613 8.9302 7.37568 8.67181 7.47611C8.35296 7.5937 8.06454 7.7813 7.82799 8.02506C7.58423 8.26181 7.39663 8.55003 7.27884 8.86888C7.17841 9.12746 7.05887 9.51612 7.0263 10.2316C6.991 11.0054 6.9834 11.2375 6.9834 13.1972C6.9834 15.1566 6.991 15.3887 7.0263 16.1627C7.05887 16.8782 7.17841 17.2667 7.27884 17.5252C7.39663 17.8441 7.58403 18.1323 7.8278 18.3691C8.06454 18.6128 8.35277 18.8004 8.67161 18.918C8.9302 19.0186 9.31886 19.1382 10.0344 19.1707C10.8082 19.206 11.04 19.2135 12.9997 19.2135C14.9596 19.2135 15.1916 19.206 15.9652 19.1707C16.6807 19.1382 17.0694 19.0186 17.328 18.918C17.968 18.6711 18.4739 18.1653 18.7207 17.5252C18.8212 17.2667 18.9407 16.8782 18.9735 16.1627C19.0088 15.3887 19.0162 15.1566 19.0162 13.1972C19.0162 11.2375 19.0088 11.0054 18.9735 10.2316C18.9409 9.51612 18.8214 9.12746 18.7207 8.86888ZM12.9999 16.9654C10.9185 16.9654 9.2313 15.2783 9.2313 13.197C9.2313 11.1156 10.9185 9.42856 12.9999 9.42856C15.0811 9.42856 16.7683 11.1156 16.7683 13.197C16.7683 15.2783 15.0811 16.9654 12.9999 16.9654ZM16.9173 10.1602C16.4309 10.1602 16.0366 9.76593 16.0366 9.27957C16.0366 8.79321 16.4309 8.3989 16.9173 8.3989C17.4036 8.3989 17.798 8.79321 17.798 9.27957C17.7978 9.76593 17.4036 10.1602 16.9173 10.1602Z" fill="white"/>
<path d="M12.9997 0.261719C5.85685 0.261719 0.0644531 6.05412 0.0644531 13.197C0.0644531 20.3398 5.85685 26.1322 12.9997 26.1322C20.1426 26.1322 25.935 20.3398 25.935 13.197C25.935 6.05412 20.1426 0.261719 12.9997 0.261719ZM20.3826 16.2593C20.3466 17.05 20.2209 17.5898 20.0374 18.0623C19.6515 19.06 18.8628 19.8487 17.865 20.2346C17.3927 20.4182 16.8527 20.5437 16.0622 20.5798C15.2701 20.616 15.0171 20.6246 12.9999 20.6246C10.9825 20.6246 10.7297 20.616 9.93741 20.5798C9.14692 20.5437 8.6069 20.4182 8.13458 20.2346C7.63877 20.0481 7.18993 19.7558 6.81887 19.3778C6.44109 19.0069 6.14877 18.5579 5.96225 18.0623C5.77869 17.59 5.65297 17.05 5.61704 16.2595C5.58053 15.4672 5.57204 15.2142 5.57204 13.197C5.57204 11.1798 5.58053 10.9267 5.61685 10.1347C5.65277 9.34399 5.7783 8.80416 5.96186 8.33165C6.14838 7.83603 6.44089 7.387 6.81887 7.01613C7.18974 6.63816 7.63877 6.34584 8.13438 6.15932C8.6069 5.97576 9.14672 5.85023 9.93741 5.81411C10.7295 5.77799 10.9825 5.76931 12.9997 5.76931C15.0169 5.76931 15.2699 5.77799 16.062 5.81431C16.8527 5.85023 17.3925 5.97576 17.865 6.15912C18.3606 6.34565 18.8097 6.63816 19.1807 7.01613C19.5585 7.3872 19.851 7.83603 20.0374 8.33165C20.2211 8.80416 20.3466 9.34399 20.3828 10.1347C20.4189 10.9267 20.4274 11.1798 20.4274 13.197C20.4274 15.2142 20.4189 15.4672 20.3826 16.2593Z" fill="white"/>
</svg>
