<svg width="54" height="47" viewBox="0 0 54 47" fill="none" xmlns="http://www.w3.org/2000/svg">
<path d="M45.9813 20.5239H43.2043C42.8025 20.5239 42.4553 20.255 42.3091 19.8427C42.1446 19.3946 41.9619 18.9465 41.7427 18.5165C41.5601 18.1224 41.6147 17.692 41.8889 17.4234L43.8621 15.5059C44.2094 15.1476 44.2094 14.592 43.8621 14.2332L38.6915 9.16128C38.3262 8.82069 37.7599 8.82069 37.3941 9.16128L35.4393 11.0969C35.1651 11.3658 34.7268 11.4194 34.3249 11.2402C33.8866 11.0252 33.4298 10.8461 32.9545 10.6847C32.5527 10.5413 32.2785 10.2007 32.2785 9.80657L32.2782 7.08221C32.2782 6.58056 31.8763 6.18604 31.3645 6.18604H24.0564C23.545 6.18604 23.1431 6.58056 23.1431 7.08221V9.80621C23.1431 10.2004 22.869 10.541 22.4487 10.6843C21.9919 10.8457 21.5351 11.0249 21.0967 11.2402C20.6949 11.4194 20.2561 11.3658 19.9824 11.0969L18.0271 9.16127C17.6618 8.82068 17.0955 8.82068 16.7297 9.16127L11.5595 14.2332C11.2123 14.5916 11.2123 15.1471 11.5595 15.5059L13.5328 17.4234C13.8069 17.6924 13.8615 18.1224 13.6789 18.5165C13.4593 18.9465 13.2767 19.3946 13.1125 19.8604C12.9664 20.2549 12.6192 20.5239 12.217 20.5239H9.43998C8.92856 20.5239 8.52637 20.918 8.52637 21.42V28.5888C8.52637 29.0904 8.92819 29.485 9.43998 29.485H12.217C12.6188 29.485 12.966 29.7539 13.1121 30.1481C13.2767 30.6139 13.4593 31.0619 13.6785 31.4923C13.8612 31.8865 13.8066 32.3168 13.5324 32.5854L11.5594 34.5026C11.3948 34.6818 11.2852 34.8968 11.2852 35.148C11.2852 35.381 11.3948 35.6138 11.5594 35.7752L16.73 40.8472C17.0953 41.1878 17.6617 41.1878 18.0274 40.8472L19.9823 38.9115C20.2564 38.6426 20.6948 38.589 21.0966 38.7682C21.535 38.9832 21.9918 39.1624 22.467 39.3238C22.8689 39.4671 23.143 39.8077 23.143 40.2019V42.9262C23.143 43.4279 23.5448 43.8224 24.0566 43.8224H31.3648C31.8762 43.8224 32.2784 43.4283 32.2784 42.9262V40.2022C32.2784 39.8081 32.5526 39.4675 32.9544 39.3242C33.4293 39.1627 33.8861 38.9836 34.3248 38.7686C34.7267 38.5894 35.1654 38.643 35.4392 38.9119L37.394 40.8475C37.7593 41.1881 38.3257 41.1881 38.6914 40.8475L43.862 35.7756C44.0266 35.6141 44.1362 35.3814 44.1362 35.1483C44.1362 34.8975 44.0266 34.6825 43.862 34.503L41.8888 32.5854C41.6146 32.3165 41.56 31.8865 41.7426 31.4923C41.9618 31.0623 42.1445 30.6142 42.309 30.1481C42.4552 29.7539 42.8024 29.485 43.2042 29.485L45.9812 29.4846C46.4926 29.4846 46.8948 29.0904 46.8948 28.5884V21.4197C46.8944 20.918 46.4926 20.5239 45.9812 20.5239L45.9813 20.5239ZM34.1056 25.0041C34.1056 28.4628 31.2371 31.2766 27.7111 31.2766C24.1847 31.2769 21.3162 28.4631 21.3162 25.0041C21.3162 21.5453 24.1847 18.7316 27.7107 18.7316C31.2371 18.7316 34.1056 21.5453 34.1056 25.0041Z" fill="#363636"/>
</svg>
