<svg width="23" height="15" viewBox="0 0 23 15" fill="none" xmlns="http://www.w3.org/2000/svg">
<path d="M1.09524 0C1.00691 0 0.920712 0.0145119 0.838542 0.0342262L11.0037 9.13839C11.2368 9.34704 11.7632 9.34704 11.9963 9.13839L22.1615 0.0342262C22.0793 0.0145119 21.9931 0 21.9048 0H1.09524ZM0.0427692 0.804315C0.0175787 0.896918 0 0.994394 0 1.09524V13.6905C0 13.7884 0.018893 13.8826 0.0427692 13.9728L7.35863 7.35009L0.0427692 0.804315ZM22.9572 0.804315L15.6414 7.35009L22.9572 13.9728C22.9811 13.8826 23 13.7884 23 13.6905V1.09524C23 0.994394 22.9825 0.896918 22.9572 0.804315ZM8.18006 8.08592L0.829972 14.743C0.915345 14.764 1.00313 14.7857 1.09524 14.7857H21.9048C21.9969 14.7857 22.0847 14.7641 22.17 14.743L14.8199 8.08592L12.7321 9.95128C12.0357 10.5747 10.9643 10.5747 10.2679 9.95128L8.18006 8.08592Z" fill="#86BE3F"/>
</svg>
