<svg width="23" height="24" viewBox="0 0 23 24" fill="none" xmlns="http://www.w3.org/2000/svg">
<path d="M21.0382 16.8613C20.712 16.6821 20.3023 16.8012 20.1232 17.1274C19.944 17.4535 20.0631 17.8632 20.3893 18.0424C21.192 18.4833 21.6523 18.9722 21.6523 19.3836C21.6523 19.8867 20.9394 20.6666 18.9385 21.3464C16.9617 22.0181 14.32 22.3879 11.5 22.3879C8.68003 22.3879 6.03831 22.0181 4.06152 21.3464C2.06057 20.6666 1.34766 19.8867 1.34766 19.3836C1.34766 18.9722 1.80802 18.4833 2.61068 18.0423C2.93686 17.8632 3.05599 17.4535 2.8768 17.1273C2.6976 16.8012 2.28805 16.682 1.96178 16.8612C1.06685 17.3529 0 18.1896 0 19.3836C0 20.2988 0.629445 21.6037 3.62798 22.6224C5.74075 23.3402 8.53641 23.7356 11.5 23.7356C14.4636 23.7356 17.2593 23.3402 19.372 22.6224C22.3706 21.6037 23 20.2988 23 19.3836C23 18.1896 21.9332 17.3529 21.0382 16.8613Z" fill="white"/>
<path d="M6.41263 20.3724C7.7805 20.7589 9.58721 20.9717 11.4999 20.9717C13.4127 20.9717 15.2194 20.7589 16.5873 20.3724C18.2607 19.8997 19.1093 19.2154 19.1093 18.3386C19.1093 17.4618 18.2607 16.7775 16.5873 16.3048C16.2157 16.1999 15.8117 16.1078 15.3822 16.0293C15.1489 16.4323 14.9045 16.8472 14.6489 17.274C15.1244 17.3453 15.5708 17.4328 15.9761 17.5361C17.2077 17.8498 17.6577 18.2029 17.7501 18.3386C17.6576 18.4744 17.2078 18.8276 15.9762 19.1412C14.8105 19.4381 13.3107 19.6075 11.7312 19.6226C11.6547 19.6283 11.5776 19.6314 11.4999 19.6314C11.4223 19.6314 11.3452 19.6283 11.2687 19.6226C9.6891 19.6075 8.18933 19.4381 7.02366 19.1412C5.79208 18.8276 5.34219 18.4744 5.24969 18.3386C5.34219 18.2029 5.79212 17.8498 7.0237 17.5361C7.42908 17.4328 7.87546 17.3453 8.35096 17.274C8.0954 16.8472 7.85098 16.4323 7.6177 16.0293C7.18816 16.1079 6.78409 16.1999 6.41263 16.3048C4.73915 16.7775 3.89062 17.4618 3.89062 18.3386C3.89063 19.2154 4.73915 19.8997 6.41263 20.3724Z" fill="white"/>
<path d="M11.5002 18.2839C12.1001 18.2839 12.6449 17.9782 12.9579 17.4662C15.1505 13.8789 17.7641 9.15105 17.7641 6.9997C17.7641 3.54579 14.9542 0.73584 11.5002 0.73584C8.04628 0.73584 5.23633 3.54579 5.23633 6.9997C5.23633 9.15105 7.85002 13.8789 10.0426 17.4662C10.3555 17.9782 10.9004 18.2839 11.5002 18.2839ZM8.9825 6.56962C8.9825 5.1814 10.112 4.05197 11.5002 4.05197C12.8885 4.05197 14.018 5.1814 14.018 6.56962C14.018 7.95788 12.8885 9.08731 11.5002 9.08731C10.112 9.08731 8.9825 7.95793 8.9825 6.56962Z" fill="white"/>
</svg>
