<svg width="31" height="32" viewBox="0 0 31 32" fill="none" xmlns="http://www.w3.org/2000/svg">
<path d="M28.3559 22.0241C27.9161 21.7825 27.364 21.9432 27.1226 22.3827C26.8811 22.8224 27.0416 23.3746 27.4813 23.616C28.5631 24.2103 29.1836 24.8692 29.1836 25.4237C29.1836 26.1019 28.2227 27.153 25.5258 28.0692C22.8614 28.9745 19.3008 29.473 15.5 29.473C11.6992 29.473 8.13859 28.9745 5.47422 28.0692C2.77729 27.153 1.81641 26.1019 1.81641 25.4237C1.81641 24.8692 2.43689 24.2103 3.51874 23.616C3.95837 23.3745 4.11894 22.8223 3.87742 22.3827C3.6359 21.9431 3.08389 21.7825 2.64414 22.024C1.43793 22.6867 0 23.8144 0 25.4237C0 26.6573 0.848383 28.4161 4.88989 29.7891C7.73753 30.7566 11.5056 31.2894 15.5 31.2894C19.4944 31.2894 23.2625 30.7566 26.1101 29.7891C30.1516 28.4161 31 26.6573 31 25.4237C31 23.8144 29.5621 22.6867 28.3559 22.0241Z" fill="#86BE3F"/>
<path d="M8.64336 26.7561C10.487 27.277 12.9222 27.5638 15.5002 27.5638C18.0782 27.5638 20.5133 27.277 22.357 26.7561C24.6125 26.119 25.7562 25.1966 25.7562 24.0149C25.7562 22.8331 24.6125 21.9108 22.357 21.2737C21.8563 21.1322 21.3117 21.0082 20.7328 20.9023C20.4183 21.4456 20.0889 22.0047 19.7445 22.58C20.3853 22.6761 20.9869 22.794 21.5333 22.9332C23.1933 23.356 23.7997 23.832 23.9244 24.0149C23.7996 24.198 23.1933 24.6739 21.5334 25.0967C19.9622 25.4968 17.9408 25.7251 15.8118 25.7455C15.7087 25.7531 15.6048 25.7574 15.5002 25.7574C15.3955 25.7574 15.2917 25.7531 15.1885 25.7455C13.0595 25.7251 11.0381 25.4969 9.46692 25.0967C7.80697 24.6739 7.20059 24.1979 7.07593 24.0149C7.20059 23.832 7.80703 23.356 9.46698 22.9332C10.0134 22.7941 10.615 22.6761 11.2559 22.58C10.9114 22.0048 10.582 21.4455 10.2676 20.9023C9.68864 21.0082 9.14403 21.1322 8.64336 21.2737C6.38781 21.9108 5.24414 22.8331 5.24414 24.0149C5.24414 25.1966 6.38781 26.1189 8.64336 26.7561Z" fill="#86BE3F"/>
<path d="M15.4993 23.9412C16.3078 23.9412 17.0422 23.5293 17.4639 22.8392C20.4192 18.0041 23.942 11.6318 23.942 8.73215C23.942 4.07688 20.1546 0.289551 15.4993 0.289551C10.844 0.289551 7.05664 4.07688 7.05664 8.73215C7.05664 11.6318 10.5794 18.0041 13.5347 22.8392C13.9564 23.5293 14.6909 23.9412 15.4993 23.9412ZM12.1058 8.15247C12.1058 6.28139 13.6282 4.75912 15.4993 4.75912C17.3704 4.75912 18.8928 6.28139 18.8928 8.15247C18.8928 10.0236 17.3704 11.5459 15.4993 11.5459C13.6282 11.5459 12.1058 10.0237 12.1058 8.15247Z" fill="#86BE3F"/>
</svg>
