<svg width="72" height="71" viewBox="0 0 72 71" fill="none" xmlns="http://www.w3.org/2000/svg">
<path d="M69.8397 38.6635C68.2692 37.9363 66.5398 37.6208 64.8142 37.7483C63.9509 32.1528 62.362 24.4678 60.4965 22.8701C58.26 20.8581 46.1712 20.0638 36.474 20.5645C36.5915 19.8039 36.6584 19.0368 36.6727 18.2675C36.6727 13.4584 34.7618 8.8459 31.3614 5.445C27.9605 2.04483 23.348 0.133789 18.539 0.133789C13.7299 0.133789 9.11739 2.04465 5.71649 5.445C2.31632 8.8459 0.405273 13.4584 0.405273 18.2675C0.405273 23.0766 2.31614 27.6891 5.71649 31.09C9.11739 34.4901 13.7299 36.4012 18.539 36.4012C19.1002 36.4012 19.6529 36.4012 20.1971 36.3235C20.1109 36.8157 20.0333 37.3079 19.9556 37.7744L19.9549 37.7737C18.232 37.659 16.5077 37.9767 14.9378 38.6982C13.8267 39.0208 13.1729 40.1675 13.4613 41.2886C13.8409 42.6874 15.6978 44.216 17.2347 44.9495C15.9598 46.3433 15.1898 48.1254 15.0504 50.01V51.3141C15.0504 52.8597 14.9727 54.8368 15.1195 56.8062V56.8055C15.0888 56.9707 15.0717 57.1381 15.0675 57.3062V67.0809C15.0703 68.046 15.4549 68.9705 16.138 69.6522C16.821 70.3338 17.7469 70.7163 18.7112 70.7163H22.9684C23.9321 70.7142 24.8559 70.3303 25.5367 69.6494C26.2184 68.9677 26.6015 68.0447 26.6044 67.081V65.6907C31.8657 66.18 37.1335 66.4307 42.4062 66.4421C47.679 66.4535 52.9638 66.2007 58.26 65.6822V67.081C58.2622 68.0447 58.646 68.9678 59.327 69.6494C60.0086 70.3303 60.9317 70.7142 61.8953 70.7163H66.161C67.1247 70.7142 68.0478 70.3303 68.7294 69.6494C69.4103 68.9677 69.7942 68.0447 69.7963 67.081V57.2977C69.7942 57.0363 69.765 56.7756 69.7102 56.5206C69.8312 54.6468 69.7963 52.7727 69.7622 51.3398V50.0357C69.6218 48.1518 68.8526 46.3691 67.5771 44.9759C69.1141 44.2416 70.9794 42.7138 71.3676 41.315L71.3683 41.3143C71.5229 40.7601 71.4488 40.1661 71.1611 39.6676C70.8733 39.169 70.3975 38.8072 69.8399 38.6633L69.8397 38.6635ZM18.5381 34.6742C14.187 34.6742 10.014 32.9456 6.93707 29.8688C3.86018 26.792 2.13165 22.6188 2.13165 18.2678C2.13165 13.9167 3.86027 9.74363 6.93707 6.66674C10.0139 3.58984 14.187 1.86131 18.5381 1.86131C22.8891 1.86131 27.0622 3.58994 30.1391 6.66674C33.216 9.74354 34.9445 13.9167 34.9445 18.2678C34.9445 22.6188 33.2159 26.7919 30.1391 29.8688C27.0623 32.9457 22.8891 34.6742 18.5381 34.6742ZM56.5329 28.2582L59.2273 41.8151C48.1384 43.9875 36.7345 43.9875 25.6449 41.8151L27.1385 34.2596C30.2046 32.6065 32.7333 30.1107 34.427 27.0667C41.9561 26.3238 53.5885 26.7298 56.4712 28.2241L56.5329 28.2582ZM15.0847 40.7616C15.0847 40.6754 15.0327 40.4853 15.5854 40.2524C16.7214 39.7417 17.9494 39.466 19.1943 39.4404C19.3496 39.4311 19.5056 39.4311 19.6609 39.4404C19.4365 40.9169 19.2634 42.1519 19.1687 42.894C18.9871 43.0493 18.7285 43.2736 18.4344 43.5678C17.5021 43.3092 15.2656 41.7459 15.0847 40.7615L15.0847 40.7616ZM24.8418 67.0816C24.8418 68.1357 23.9878 68.9897 22.9336 68.9897H18.6765C17.6209 68.9897 16.7642 68.1371 16.7598 67.0816V63.0923C16.925 63.3416 17.1131 63.5759 17.321 63.7917C18.0254 64.5374 19.0062 64.9591 20.0318 64.9576C21.6379 65.1734 23.2354 65.3551 24.8416 65.5189L24.8418 67.0816ZM68.0167 67.0816H68.0174C68.0174 68.1357 67.1627 68.9897 66.1086 68.9897H61.8693C60.8251 68.9762 59.9869 68.1257 59.9869 67.0816V65.5189C61.5759 65.3465 63.1557 65.1735 64.7447 64.9577C65.7703 64.9591 66.7511 64.5374 67.4562 63.7917C67.6855 63.551 67.8914 63.2875 68.0687 63.0061L68.0167 67.0816ZM67.9647 50.0012V51.3395C68.0252 54.3274 68.1634 60.5361 66.1513 62.5651H66.1521C65.7568 62.9932 65.1976 63.2318 64.615 63.2218H64.4939C49.7825 65.1905 34.8737 65.1905 20.1612 63.2218H20.0921C19.5066 63.241 18.9404 63.0081 18.538 62.5829C16.5259 60.5366 16.6556 54.3281 16.7246 51.3573V50.019C16.7246 47.0747 20.4461 44.1039 20.4895 44.0782C20.6668 43.9372 20.7815 43.7328 20.8092 43.5084C21.0856 41.3324 21.4916 38.6815 21.9574 36.0477C23.035 35.8354 24.0898 35.5227 25.109 35.1146L23.7187 42.282C23.6746 42.5064 23.7209 42.7393 23.8484 42.9294C23.9737 43.1203 24.1689 43.2542 24.3925 43.3012C30.426 44.5056 36.5633 45.1189 42.7153 45.1317C48.6461 45.1395 54.5614 44.5284 60.3654 43.3098C60.8291 43.2101 61.1261 42.7549 61.0307 42.2906L58.0856 27.5158C58.0436 27.3 57.9197 27.1084 57.7402 26.9809C55.09 25.1157 43.5794 24.5287 35.2456 25.1761C35.6309 24.2416 35.9372 23.2773 36.1608 22.2923C38.1466 22.1976 40.254 22.1456 42.3695 22.1456C50.1408 22.1456 57.9128 22.8108 59.4064 24.1405C61.0646 25.5913 63.0418 36.7564 63.905 43.457L63.9057 43.4563C63.9335 43.6807 64.0482 43.8851 64.2248 44.0261C65.2697 44.8808 67.9896 47.5488 67.9896 50.0017L67.9647 50.0012ZM69.6919 40.762C69.5103 41.7548 67.2225 43.3524 66.3329 43.6117C66.031 43.3182 65.7717 43.0846 65.5901 42.9293C65.4868 42.1694 65.3223 40.9344 65.0979 39.4757H65.0986C66.5039 39.406 67.9057 39.678 69.1826 40.2699C69.7182 40.4857 69.6925 40.7193 69.6747 40.7621L69.6919 40.762Z" fill="#86BE3F"/>
<path d="M23.4955 48.4915C20.9656 48.4915 18.9102 51.1944 18.9102 54.5362C18.9102 57.878 20.9651 60.5809 23.4955 60.5809C26.0254 60.5809 28.0808 57.878 28.0808 54.5362C28.0808 51.1944 26.0254 48.4915 23.4955 48.4915ZM23.4955 58.8105C21.9414 58.8105 20.6372 56.8418 20.6372 54.4928C20.6372 52.1438 21.9413 50.1751 23.4955 50.1751C25.0497 50.1751 26.3538 52.1438 26.3538 54.4928C26.3538 56.8411 25.0411 58.8532 23.4955 58.8532V58.8105Z" fill="#86BE3F"/>
<path d="M61.2572 48.7412C58.7273 48.7412 56.6719 51.4441 56.6719 54.786C56.6719 58.1278 58.7268 60.8307 61.2572 60.8307C63.7871 60.8307 65.8426 58.1278 65.8426 54.786C65.8419 51.4441 63.7871 48.7412 61.2572 48.7412ZM61.2572 59.0602C59.7031 59.0602 58.3989 57.0916 58.3989 54.7426C58.3989 52.3935 59.7031 50.4249 61.2572 50.4249C62.8113 50.4249 64.1155 52.3935 64.1155 54.7426C64.1155 57.0916 62.8028 59.0602 61.2572 59.0602Z" fill="#86BE3F"/>
<path d="M54.5037 49.8808C46.4489 48.888 38.3029 48.888 30.2478 49.8808C30.0035 49.91 29.7841 50.0418 29.6431 50.2434C29.5042 50.4449 29.4572 50.6956 29.5135 50.9342L31.6032 59.811C31.683 60.1429 31.9501 60.3965 32.2855 60.4584C38.9493 61.759 45.8018 61.759 52.4663 60.4584C52.8017 60.3965 53.0688 60.1429 53.1486 59.811L55.2384 50.9342C55.2939 50.6956 55.2455 50.4449 55.1059 50.2441C54.9656 50.0432 54.7469 49.9107 54.504 49.8808H54.5037ZM51.5935 58.8522C45.4988 59.9662 39.2531 59.9662 33.1577 58.8522L31.4305 51.4691L31.4312 51.4698C38.7125 50.6408 46.065 50.6408 53.3478 51.4698L51.5935 58.8522Z" fill="#86BE3F"/>
<path d="M26.0608 16.3423L21.1819 15.479L24.0921 5.11734C24.2004 4.72561 24.0216 4.31108 23.6619 4.12163C23.3022 3.93217 22.8592 4.01978 22.5978 4.33102L10.4483 19.0104V19.0111C10.2532 19.2483 10.199 19.5709 10.3059 19.8594C10.4127 20.1471 10.6641 20.3565 10.9668 20.4099L15.984 21.2732L13.1343 31.5572C13.0267 31.9489 13.2062 32.362 13.5659 32.5508C13.6884 32.6135 13.8251 32.6462 13.9626 32.6455C14.2197 32.6462 14.4633 32.5323 14.6278 32.3343L26.57 17.7411C26.7723 17.5018 26.8285 17.1713 26.7167 16.8779C26.6063 16.5973 26.3577 16.3943 26.0607 16.3423L26.0608 16.3423ZM15.8799 28.0088L17.9006 20.7296V20.7289C17.9675 20.4924 17.9305 20.2382 17.7987 20.0302C17.667 19.8222 17.4526 19.6812 17.2097 19.6413L12.7369 18.8813L21.372 8.51964L19.2994 15.9027V15.902C19.2325 16.1356 19.2667 16.3863 19.3942 16.5929C19.5224 16.8016 19.7325 16.9455 19.9732 16.9903L24.3429 17.7845L15.8799 28.0088Z" fill="#86BE3F"/>
</svg>
