<svg width="30" height="34" viewBox="0 0 30 34" fill="none" xmlns="http://www.w3.org/2000/svg">
<path d="M25.8989 4.18916H19.1644C18.4878 2.27516 16.7155 0.88916 14.6211 0.88916C12.5266 0.88916 10.7544 2.27516 10.0778 4.18916H3.34332C1.57109 4.18916 0.121094 5.67416 0.121094 7.48916V30.5892C0.121094 32.4042 1.57109 33.8892 3.34332 33.8892H25.8989C27.6711 33.8892 29.1211 32.4042 29.1211 30.5892V7.48916C29.1211 5.67416 27.6711 4.18916 25.8989 4.18916ZM14.6211 4.18916C15.5072 4.18916 16.2322 4.93166 16.2322 5.83916C16.2322 6.74666 15.5072 7.48916 14.6211 7.48916C13.735 7.48916 13.01 6.74666 13.01 5.83916C13.01 4.93166 13.735 4.18916 14.6211 4.18916ZM17.8433 27.2892H6.56554V23.9892H17.8433V27.2892ZM22.6767 20.6892H6.56554V17.3892H22.6767V20.6892ZM22.6767 14.0892H6.56554V10.7892H22.6767V14.0892Z" fill="#86BE3F"/>
</svg>
