<svg width="54" height="47" viewBox="0 0 54 47" fill="none" xmlns="http://www.w3.org/2000/svg">
<path d="M46.2368 9.15733C46.2368 6.84753 44.3342 4.92285 42.0508 4.92285H11.2915C8.94487 4.92285 7.10547 6.84753 7.10547 9.15733V26.6077C7.10547 27.8266 7.6127 28.9175 8.4373 29.6873C8.62747 29.1742 8.88125 28.6607 9.19831 28.1477C9.38848 27.8269 9.57897 27.5702 9.76915 27.2495C9.70587 27.0571 9.64225 26.8644 9.64225 26.6721V9.22174C9.64225 8.3236 10.4033 7.55378 11.2911 7.55378L26.6391 7.55344L41.987 7.48943C42.8748 7.48943 43.6359 8.25924 43.6359 9.15739V26.6077C43.6359 27.5059 42.8749 28.2757 41.987 28.2757L27.4636 28.2117C27.9075 29.0458 28.2882 29.8796 28.5416 30.7778L41.9877 30.8419C43.1293 30.8419 44.2074 30.3928 44.9684 29.6229C45.7294 28.8531 46.1734 27.7622 46.1734 26.6077V17.8821L46.2368 9.15733Z" fill="#86BE3F"/>
<path d="M41.0989 14.5469C38.689 13.8411 37.0397 12.1731 36.3423 9.73535H16.9352C16.3011 12.1731 14.6518 13.8414 12.1787 14.5469V21.2188C13.5105 21.6039 14.6522 22.3094 15.4765 23.2719C16.3644 23.0152 17.3159 22.8868 18.2671 22.8868C20.1698 22.8868 22.0725 23.3999 23.7214 24.4265C24.4824 24.8756 25.1168 25.3887 25.751 26.0304H36.3421C36.9762 23.5927 38.6255 21.9244 41.0986 21.2189V17.8829L41.0989 14.5469ZM29.493 20.0643C29.3661 21.0265 28.7953 21.7323 27.9074 22.1174C27.7805 22.1814 27.7172 22.1814 27.5903 22.2458L27.4634 22.3098V23.7213H25.8145V22.3741H25.6244C25.4975 22.3741 25.3706 22.3101 25.2437 22.3101C24.863 22.2461 24.4191 22.0534 24.1021 21.861C23.8483 21.7326 23.785 21.4759 23.8483 21.2196C23.9116 21.0272 23.9752 20.8988 24.0385 20.7065L24.2922 20.0007L24.9263 20.3214C25.4336 20.5781 25.8775 20.7065 26.3851 20.7065H26.512C26.7022 20.7065 26.8927 20.6424 27.0828 20.5781C27.3999 20.4497 27.5901 20.193 27.6537 19.8723C27.717 19.5516 27.5904 19.2308 27.273 18.9742C26.956 18.7818 26.6389 18.5891 26.2582 18.4611C25.8143 18.2687 25.307 18.012 24.7994 17.6269C24.2922 17.1778 23.9748 16.5364 23.9748 15.8305C23.9748 15.0607 24.3555 14.3549 24.926 13.9059C25.1798 13.7135 25.4969 13.5208 25.8772 13.3928L26.0041 13.3288V11.9172H27.5897V13.2004H27.7799C27.9068 13.2004 28.097 13.2645 28.2239 13.2645C28.414 13.3285 28.6678 13.3928 28.858 13.5212L28.9849 13.5852C29.2386 13.7135 29.3019 13.9702 29.2386 14.2266C29.1754 14.419 29.1117 14.6117 28.9849 14.8681L28.7311 15.5095L28.2245 15.4452C27.9707 15.2528 27.6537 15.1885 27.3367 15.1244C26.8927 15.0604 26.5121 15.0604 26.2586 15.1244C25.8779 15.2528 25.8147 15.5095 25.7514 15.7019C25.6881 16.0226 25.8147 16.215 26.0052 16.3433C26.2589 16.5357 26.576 16.6641 26.9564 16.8564C27.4003 17.0488 27.9076 17.2415 28.3518 17.5622C29.2393 18.1397 29.62 19.0379 29.4931 20.0643L29.493 20.0643Z" fill="#86BE3F"/>
<path d="M26.7663 34.6271L26.6394 34.5631C26.1954 34.3064 25.8148 33.9856 25.3708 33.7289C25.4341 32.3817 25.0537 31.0344 24.356 29.8796C22.3264 26.5436 18.0139 25.4527 14.7154 27.5058C13.32 28.4039 12.242 29.7512 11.7347 31.2912L11.6078 31.6762L10.1494 31.2271L10.2763 30.8421C10.9104 28.9174 12.179 27.3134 13.8915 26.2229C17.887 23.7208 23.1515 25.004 25.5617 29.1098C26.5761 30.7777 27.0201 32.7025 26.7663 34.6272L26.7663 34.6271Z" fill="#86BE3F"/>
<path d="M22.7695 40.914L22.4524 41.1064L21.6914 39.8231L22.0085 39.6307C22.8963 39.1176 23.6573 38.3475 24.1649 37.5137L25.8138 37.5777C25.1161 38.9893 24.038 40.1442 22.7694 40.9139L22.7695 40.914Z" fill="#86BE3F"/>
<path d="M11.1236 33.1774C11.2538 33.5063 11.0958 33.8798 10.771 34.0116C10.4459 34.1433 10.0766 33.9838 9.94608 33.6549C9.81584 33.3261 9.97353 32.9525 10.2986 32.8208C10.6237 32.6887 10.993 32.8485 11.1236 33.1774Z" fill="#86BE3F"/>
<path d="M20.4881 40.7037C20.8531 41.3085 20.6639 42.0983 20.066 42.4675C19.468 42.8367 18.6876 42.6453 18.3226 42.0404C17.9577 41.4356 18.1465 40.6461 18.7445 40.2769C19.3424 39.9078 20.1232 40.0988 20.4881 40.7037" fill="#86BE3F"/>
<path d="M16.0483 40.7223C16.0483 40.53 15.9851 40.3373 15.9214 40.1449C15.7313 39.8242 15.4142 39.6958 15.0968 39.6958C14.526 39.6958 14.082 40.0809 14.082 40.658C14.082 40.8504 14.1453 41.0431 14.2089 41.2355C14.3991 41.5562 14.7161 41.6845 15.0335 41.6845C15.5411 41.7486 15.9851 41.2995 16.0483 40.7223Z" fill="#86BE3F"/>
<path d="M12.4977 37.2569C12.4344 37.1285 12.3708 37.0645 12.2439 37.0001C12.0537 36.8718 11.7999 36.8078 11.6098 36.8718C11.356 36.9358 11.1658 37.0642 11.0389 37.2569C10.7852 37.5136 10.7852 37.8983 10.9757 38.2194C11.0389 38.3478 11.1025 38.4118 11.2294 38.4761C11.4196 38.6045 11.6734 38.6685 11.8635 38.6045C12.1173 38.5405 12.3075 38.4121 12.4344 38.2194C12.6246 37.9627 12.6878 37.5776 12.4977 37.2569Z" fill="#86BE3F"/>
<path d="M26.3862 36.5512C26.5131 36.5512 26.64 36.4872 26.7032 36.3588V36.2948V36.2308C26.7032 36.1024 26.64 35.91 26.5131 35.7817L26.4498 35.7177L26.0691 35.461C25.3714 35.0119 24.6737 34.5628 24.0395 34.1137C23.6589 33.857 23.2785 33.6006 22.8979 33.3439C21.8831 32.7025 20.8683 31.9967 19.8535 31.4192C18.8387 30.7778 17.5069 30.9701 16.6823 31.8683C15.9213 32.7025 15.8576 33.9214 16.4285 34.8835C16.4918 34.9475 16.5554 35.0759 16.6187 35.1402C17.0626 35.7177 17.7603 36.0384 18.5847 36.1024C20.2971 36.1665 22.0093 36.2948 23.6585 36.3592L26.3862 36.5512Z" fill="#86BE3F"/>
</svg>
