<svg width="69" height="71" viewBox="0 0 69 71" fill="none" xmlns="http://www.w3.org/2000/svg">
<path d="M41.0385 38.9118C40.5981 38.9118 40.2411 38.5548 40.2411 38.1143C40.2411 29.3327 42.7162 26.0868 44.9013 23.2226C46.5215 21.0979 47.8027 19.4202 47.8027 15.7314C47.8027 8.11903 41.6099 1.92437 33.9957 1.92437C26.3814 1.92437 20.1886 8.11721 20.1886 15.7314C20.1886 19.419 21.4691 21.0967 23.09 23.2226C25.2751 26.0872 27.7502 29.3326 27.7502 38.1143C27.7502 38.5548 27.3932 38.9118 26.9528 38.9118C26.5124 38.9118 26.1554 38.5548 26.1554 38.1143C26.1554 29.8719 23.8536 26.8527 21.8219 24.1906C20.1614 22.0151 18.5938 19.959 18.5938 15.7327C18.5938 7.23988 25.503 0.330505 33.9959 0.330505C42.4887 0.330505 49.398 7.23972 49.398 15.7327C49.398 19.959 47.8304 22.0149 46.1698 24.1906C44.1394 26.8539 41.8364 29.8719 41.8364 38.1143C41.8364 38.5548 41.4788 38.9118 41.039 38.9118H41.0385Z" fill="#86BE3F"/>
<path d="M43.1536 43.925H24.8326C24.3921 43.925 24.0352 43.5681 24.0352 43.1276V38.1146C24.0352 37.6742 24.3921 37.3172 24.8326 37.3172H43.1536C43.594 37.3172 43.951 37.6742 43.951 38.1146V43.1276C43.951 43.5681 43.5952 43.925 43.1536 43.925V43.925ZM25.6297 42.3303H42.3564V38.912H25.6297V42.3303Z" fill="#86BE3F"/>
<path d="M33.9937 48.4473C31.0592 48.4473 28.6729 46.0616 28.6729 43.1265C28.6729 42.6861 29.0298 42.3291 29.4703 42.3291C29.9107 42.3291 30.2677 42.6861 30.2677 43.1265C30.2677 45.1808 31.9388 46.8526 33.9937 46.8526C36.048 46.8526 37.7198 45.1814 37.7198 43.1265C37.7198 42.6861 38.0767 42.3291 38.5172 42.3291C38.9576 42.3291 39.3146 42.6861 39.3146 43.1265C39.3146 46.0598 36.9271 48.4473 33.9938 48.4473H33.9937Z" fill="#86BE3F"/>
<path d="M46.4499 70.5193H37.625C37.3746 70.5193 37.1384 70.4015 36.9869 70.2002C36.8353 69.9995 36.7891 69.739 36.859 69.4987L40.7235 56.1923C42.2645 50.8911 50.1493 42.8618 53.9091 42.7695C53.9316 42.7695 53.9553 42.7677 53.9778 42.7677C54.9398 42.7677 55.665 43.2762 55.9728 44.1695C56.8099 46.6021 54.5437 48.4745 52.721 49.98C52.0656 50.5223 50.9746 51.4233 50.9237 51.7821C50.9462 51.8141 51.0338 51.9177 51.3079 52.0597C52.1006 52.4185 57.1675 51.122 60.5283 46.6803C60.7817 46.3452 61.2203 45.5798 61.6845 44.771C63.6813 41.2878 65.1027 39.018 66.5922 39.208C67.045 39.2655 67.6512 39.5715 67.9656 40.7076C68.7103 43.4076 65.7007 48.8718 63.8393 51.8898C61.5713 55.5679 58.2105 60.035 56.1966 61.1533C55.144 61.7371 54.1038 61.8756 53.0992 62.0111C50.7135 62.3302 48.6508 62.6061 47.236 69.8723C47.1596 70.2482 46.8322 70.5193 46.4498 70.5193L46.4499 70.5193ZM38.6869 68.9245H45.7986C46.5114 65.5625 47.4651 63.3823 48.7793 62.0953C50.0954 60.8065 51.5771 60.6071 52.8849 60.4336C53.7847 60.314 54.633 60.1991 55.4209 59.7622C56.8849 58.9488 59.9202 55.2074 62.4817 51.0558C65.2872 46.5068 66.8358 42.6139 66.4273 41.1351C66.3924 41.0072 66.3587 40.9184 66.3302 40.8574C66.142 40.9818 65.7276 41.3405 65.0178 42.3694C64.3494 43.3373 63.6698 44.5225 63.0701 45.5685C62.5373 46.4968 62.1163 47.2303 61.802 47.6464C58.7225 51.7181 54.0557 53.6848 51.6581 53.6848C51.2099 53.6848 50.8417 53.6162 50.5765 53.4788C49.8205 53.0881 49.4026 52.5778 49.3374 51.9621C49.2149 50.8106 50.3693 49.8569 51.706 48.7528C53.2227 47.499 54.9436 46.0783 54.4653 44.6923C54.3872 44.4644 54.2913 44.362 53.9503 44.3655C51.1317 44.4342 43.6678 51.7832 42.2578 56.64L38.6869 68.9245Z" fill="#86BE3F"/>
<path d="M31.4324 70.5193H22.6076C22.2264 70.5193 21.8978 70.2481 21.8244 69.8752C20.4083 62.6085 18.3477 62.3325 15.9612 62.0141C14.9548 61.8803 13.9146 61.74 12.8621 61.1563C10.8463 60.038 7.48734 55.5708 5.21938 51.8927C3.35818 48.8753 0.346706 43.4111 1.0931 40.7105C1.40567 39.575 2.01187 39.2684 2.46653 39.211C3.95599 39.0209 5.37555 41.2907 7.37421 44.774C7.83834 45.5826 8.277 46.3481 8.53038 46.6832C11.8894 51.125 16.9563 52.4202 17.7526 52.0615C18.0255 51.9212 18.1131 51.8158 18.1356 51.7856C18.0847 51.4268 16.9936 50.5258 16.3383 49.9835C14.5167 48.478 12.2489 46.6056 13.0865 44.173C13.402 43.2578 14.158 42.7469 15.1502 42.7712C18.9094 42.8635 26.7948 50.8928 28.3357 56.1941L32.2003 69.5004C32.2707 69.7413 32.2228 70.0012 32.0724 70.2019C31.9221 70.4026 31.6829 70.5192 31.4325 70.5192L31.4324 70.5193ZM23.2587 68.9245H30.3704L26.8006 56.6389C25.3904 51.7821 17.9265 44.4343 15.1081 44.3644C14.7683 44.3615 14.6712 44.4633 14.5913 44.6912C14.1129 46.0788 15.8339 47.4984 17.3506 48.7517C18.6873 49.857 19.8418 50.8107 19.7192 51.961C19.654 52.5749 19.2373 53.0852 18.4801 53.4777C16.8037 54.3456 10.9109 52.4778 7.25532 47.6436C6.94097 47.2274 6.52005 46.4939 5.98726 45.5656C5.38757 44.5196 4.70677 43.3344 4.03846 42.3666C3.32866 41.3377 2.91248 40.9789 2.72423 40.8546C2.69581 40.915 2.66206 41.0061 2.62714 41.1322C2.21866 42.6104 3.76911 46.504 6.57459 51.0529C9.13445 55.2028 12.1696 58.946 13.6354 59.7594C14.4233 60.1963 15.2717 60.3093 16.1714 60.4307C17.4791 60.6059 18.9609 60.8037 20.2769 62.0925C21.5918 63.3824 22.5461 65.5627 23.2589 68.9247L23.2587 68.9245Z" fill="#86BE3F"/>
<path d="M34.3048 28.288C32.534 28.288 30.7735 27.6913 29.4818 26.4984C28.2854 25.3949 26.9588 23.3199 27.4324 19.7087C27.8627 16.4314 29.7022 12.6017 32.8982 8.32587C33.0273 8.1536 33.2191 8.04053 33.4328 8.0133C33.6465 7.98488 33.862 8.04349 34.0295 8.17728C34.3036 8.39277 34.361 8.48038 34.6837 8.967C35.0667 9.54774 35.9642 10.9064 38.3553 14.2672C40.2391 16.9134 41.2087 19.3839 41.2372 21.6103C41.2627 23.5994 40.5339 25.3056 39.1285 26.5434C37.8054 27.7073 36.0496 28.2881 34.3049 28.2881L34.3048 28.288ZM33.5488 10.1413C28.7081 16.9403 27.5839 22.5768 30.5634 25.3267C32.5235 27.1353 36.0322 27.1435 38.0741 25.3457C40.4634 23.2405 40.084 19.4446 37.0565 15.1905C34.9857 12.2815 34.0242 10.8571 33.5488 10.1415L33.5488 10.1413Z" fill="#86BE3F"/>
<path d="M34.2857 38.9118C33.8453 38.9118 33.4883 38.5548 33.4883 38.1143V19.6221C33.4883 19.1816 33.8453 18.8246 34.2857 18.8246C34.7261 18.8246 35.0831 19.1816 35.0831 19.6221V38.1143C35.0831 38.5548 34.7261 38.9118 34.2857 38.9118Z" fill="#86BE3F"/>
</svg>
