<svg width="53" height="36" viewBox="0 0 53 36" fill="none" xmlns="http://www.w3.org/2000/svg">
<path d="M30.2975 0.916504H23.1657L21.0811 10.6814H32.3274L30.2975 0.916504Z" fill="#86BE3F"/>
<path d="M42.0378 1.63006C41.8184 1.19114 41.3795 0.916931 40.8858 0.916931H33.6992L35.6739 10.6818H46.7008L42.0378 1.63006Z" fill="#86BE3F"/>
<path d="M35.0159 23.738L33.0407 13.9726H20.3678L18.2832 23.7375H24.7019V31.8567H20.2584C19.7647 31.8567 19.3805 32.2409 19.3805 32.7345V34.9839C19.3805 35.4776 19.7647 35.8617 20.2584 35.8617H33.0957C33.5894 35.8617 33.9735 35.4776 33.9735 34.9839V32.7345C33.9735 32.2409 33.5894 31.8567 33.0957 31.8567H28.6522V23.738H35.0159Z" fill="#86BE3F"/>
<path d="M52.5154 21.873L48.456 13.9728H36.3867L38.4166 23.7378H51.4184C52.3505 23.7382 52.9542 22.7504 52.5152 21.873H52.5154Z" fill="#86BE3F"/>
<path d="M12.3585 0.916504C11.8648 0.916504 11.4259 1.19072 11.2064 1.62963L6.48828 10.6814H17.6794L19.7641 0.916529L12.3585 0.916504Z" fill="#86BE3F"/>
<path d="M0.728185 21.873C0.289258 22.7504 0.892445 23.7382 1.82504 23.7382H14.8813L16.9664 13.9728H4.78706L0.728185 21.873Z" fill="#86BE3F"/>
</svg>
