<svg width="26" height="27" viewBox="0 0 26 27" fill="none" xmlns="http://www.w3.org/2000/svg">
<path d="M13 0.197266C5.8214 0.197266 0 6.01866 0 13.1973C0 20.3759 5.8214 26.1973 13 26.1973C20.1786 26.1973 26 20.3759 26 13.1973C26 6.01866 20.1786 0.197266 13 0.197266ZM18.9357 10.3333C18.9414 10.4612 18.9442 10.5898 18.9442 10.7189C18.9442 14.6618 15.9429 19.2085 10.4544 19.2087H10.4546H10.4544C8.76929 19.2087 7.20122 18.7148 5.88071 17.8683C6.11418 17.8959 6.35182 17.9096 6.59244 17.9096C7.99051 17.9096 9.2771 17.4327 10.2985 16.6323C8.99225 16.6081 7.89093 15.7455 7.51086 14.5598C7.69276 14.5947 7.87982 14.6138 8.07164 14.6138C8.34399 14.6138 8.60782 14.5771 8.85855 14.5087C7.49321 14.2353 6.46469 13.0287 6.46469 11.5838C6.46469 11.5703 6.46469 11.5582 6.46509 11.5457C6.86717 11.7692 7.32698 11.9037 7.81654 11.9188C7.01535 11.3842 6.48869 10.4704 6.48869 9.43509C6.48869 8.8884 6.63647 8.37622 6.89276 7.93526C8.36423 9.74077 10.5633 10.9282 13.0432 11.0529C12.9921 10.8344 12.9657 10.6066 12.9657 10.3726C12.9657 8.72534 14.3021 7.38896 15.9499 7.38896C16.8082 7.38896 17.5834 7.75177 18.1279 8.33179C18.8077 8.19769 19.446 7.94934 20.0227 7.60756C19.7995 8.30402 19.3266 8.8884 18.7105 9.25795C19.3141 9.18575 19.8894 9.02567 20.424 8.78802C20.0247 9.38649 19.5182 9.91216 18.9357 10.3333Z" fill="white"/>
</svg>
