<svg width="54" height="47" viewBox="0 0 54 47" fill="none" xmlns="http://www.w3.org/2000/svg">
<path fill-rule="evenodd" clip-rule="evenodd" d="M23.9728 11.3208C15.4865 11.3282 8.52637 18.155 8.52637 26.5263C8.52637 34.8975 15.4864 41.7237 24.0075 41.7138L30.2455 41.7173C31.7204 41.7187 32.7016 40.7558 32.7016 39.5759C32.7016 38.396 31.7201 37.4324 30.5443 37.4331C29.245 37.4345 27.9082 37.3739 26.5769 37.2573C24.2689 37.0543 22.387 35.2962 22.387 33.0172C22.387 30.7382 24.2785 29.0369 26.5904 28.8678C27.0416 28.8345 27.0769 28.7911 27.9328 28.734C28.54 28.6938 30.2376 27.8041 30.2376 26.5527C30.2376 25.3013 29.1961 24.3396 27.9315 24.2853C27.4499 24.2646 26.9813 24.2467 26.5058 24.1676C24.2689 23.7961 22.387 22.2331 22.387 20.0081C22.387 17.783 24.2374 15.9679 26.5058 15.9679L27.9268 15.8846C29.1968 15.873 30.2376 14.8527 30.2376 13.6013C30.2376 12.3503 29.1968 11.3293 27.9354 11.3223L23.973 11.3216L23.9728 11.3208Z" fill="#8A8888"/>
<path fill-rule="evenodd" clip-rule="evenodd" d="M31.4479 35.1886C39.9342 35.1812 46.8944 28.3543 46.8944 19.9831C46.8944 11.6118 39.9343 4.78564 31.4132 4.7955L25.1749 4.79199C23.7 4.79059 22.7188 5.7535 22.7188 6.93344C22.7188 8.11338 23.7003 9.07694 24.8761 9.07622C26.1754 9.07482 27.5121 9.1354 28.8435 9.25199C31.1515 9.45506 33.0333 11.2131 33.0333 13.4921C33.0333 15.7712 31.1419 17.4724 28.83 17.6415C28.3788 17.6748 28.3435 17.7182 27.4876 17.7753C26.8804 17.8156 25.1827 18.7052 25.1827 19.9566C25.1827 21.208 26.2243 22.1698 27.4889 22.2241C27.9704 22.2448 28.4391 22.2626 28.9146 22.3417C31.1515 22.7132 33.0333 24.2762 33.0333 26.5013C33.0333 28.7264 31.1829 30.5414 28.9146 30.5414L27.4936 30.6248C26.2236 30.6363 25.1827 31.6566 25.1827 32.908C25.1827 34.159 26.2236 35.1801 27.485 35.1871L31.4478 35.1874L31.4479 35.1886Z" fill="#8A8888"/>
</svg>
