<svg width="61" height="62" viewBox="0 0 61 62" fill="none" xmlns="http://www.w3.org/2000/svg">
<circle cx="30.5" cy="31.2957" r="29" stroke="#86BE3F" stroke-width="3"/>
<path d="M47.6907 37.3411C38.0002 28.3508 22.9295 28.3508 13.2763 37.3411C12.9079 37.7095 12.9079 38.2991 13.2763 38.6678L18.14 43.5315C18.4716 43.8631 19.0244 43.8998 19.3928 43.5683C25.6934 37.894 35.3108 37.894 41.6114 43.5683C41.9798 43.8998 42.5326 43.8631 42.8642 43.5315L47.7279 38.6678C48.0966 38.2991 48.0966 37.7095 47.6912 37.3411H47.6907Z" fill="#86BE3F"/>
<path d="M18.7296 29.2347L25.325 27.7977C25.9882 27.6503 26.2094 26.8398 25.7305 26.3975L24.2197 24.8867C26.0621 23.413 28.2728 22.676 30.4835 22.676C32.6943 22.676 34.9421 23.413 36.7474 24.8867L35.2366 26.3975C34.7576 26.8765 35.0157 27.6871 35.6421 27.7977L42.2375 29.1979C42.8272 29.3085 43.3429 28.7924 43.2323 28.2031L41.8321 21.6077C41.6847 20.9445 40.8742 20.7233 40.4319 21.2022L38.8476 22.7866C34.0207 18.7334 26.9466 18.6967 22.1196 22.7866L20.5353 21.2389C20.0563 20.76 19.2458 21.018 19.1351 21.6444L17.735 28.2399C17.5879 28.8292 18.1404 29.3452 18.73 29.2346L18.7296 29.2347Z" fill="#86BE3F"/>
</svg>
